<?xml version="1.0" standalone="no"?><!DOCTYPE svg PUBLIC "-//W3C//DTD SVG 1.1//EN" "http://www.w3.org/Graphics/SVG/1.1/DTD/svg11.dtd"><svg t="1565835761423" class="icon" viewBox="0 0 1024 1024" version="1.1" xmlns="http://www.w3.org/2000/svg" p-id="3244" xmlns:xlink="http://www.w3.org/1999/xlink" width="200" height="200"><defs><style type="text/css">@font-face { font-family: Georgia; src: local("Source Han Serif SC"); }
@font-face { font-family: Times; src: local("Source Han Serif SC"); }
@font-face { font-family: "Time New Roman"; src: local("Source Han Serif SC"); }
@font-face { font-family: Arial; src: local("Source Han Sans SC"); }
@font-face { font-family: Helvetica; src: local("Source Han Sans SC"); }
@font-face { font-family: "Helvetica Neue"; src: local("Source Han Sans SC"); }
@font-face { font-family: "Segoe UI"; src: local("Source Han Sans SC"); }
@font-face { font-family: Tahoma; src: local("Source Han Sans SC"); }
@font-face { font-family: Trebuchet; src: local("Source Han Sans SC"); }
@font-face { font-family: "Trebuchet MS"; src: local("Source Han Sans SC"); }
@font-face { font-family: Verdana; src: local("Source Han Sans SC"); }
@font-face { font-family: Consolas; src: local("Source Code Pro"); }
@font-face { font-family: Courier; src: local("Source Code Pro"); }
@font-face { font-family: "Courier New"; src: local("Source Code Pro"); }
@font-face { font-family: SimSun; src: local("Source Han Sans SC"); }
@font-face { font-family: SimSun-ExtB; src: local("Source Han Sans SC"); }
@font-face { font-family: 宋体; src: local("Source Han Sans SC"); }
@font-face { font-family: NSimSun; src: local("Source Han Sans SC"); }
@font-face { font-family: 新宋体; src: local("Source Han Sans SC"); }
@font-face { font-family: SimHei; src: local("Source Han Sans SC"); }
@font-face { font-family: 黑体; src: local("Source Han Sans SC"); }
@font-face { font-family: "Microsoft YaHei"; src: local("Source Han Sans SC"); }
@font-face { font-family: 微软雅黑; src: local("Source Han Sans SC"); }
@font-face { font-family: "STHeiti SC"; src: local("Source Han Sans SC"); }
@font-face { font-family: "PingFang SC"; src: local("Source Han Sans SC"); }
@font-face { font-family: 苹方-简; src: local("Source Han Sans SC"); }
@font-face { font-family: MingLiU; src: local("Source Han Sans TC"); }
@font-face { font-family: MingLiU-ExtB; src: local("Source Han Sans TC"); }
@font-face { font-family: PMingLiU; src: local("Source Han Sans TC"); }
@font-face { font-family: PMingLiU-ExtB; src: local("Source Han Sans TC"); }
@font-face { font-family: "Microsoft JhengHei"; src: local("Source Han Sans TC"); }
@font-face { font-family: 微軟正黑體; src: local("Source Han Sans TC"); }
@font-face { font-family: "STHeiti TC"; src: local("Source Han Sans TC"); }
@font-face { font-family: "PingFang TC"; src: local("Source Han Sans TC"); }
@font-face { font-family: 蘋方-繁; src: local("Source Han Sans TC"); }
@font-face { font-family: MingLiU_HKSCS; src: local("Source Han Sans HC"); }
@font-face { font-family: MingLiU_HKSCS-ExtB; src: local("Source Han Sans HC"); }
@font-face { font-family: "PingFang HK"; src: local("Source Han Sans HC"); }
@font-face { font-family: 蘋方-港; src: local("Source Han Sans HC"); }
@font-face { font-family: "MS Gothic"; src: local("Source Han Sans"); }
@font-face { font-family: "MS PGothic"; src: local("Source Han Sans"); }
@font-face { font-family: "MS UI Gothic"; src: local("Source Han Sans"); }
@font-face { font-family: "Yu Gothic"; src: local("Source Han Sans"); }
@font-face { font-family: "Yu Gothic UI"; src: local("Source Han Sans"); }
@font-face { font-family: "Malgun Gothic"; src: local("Source Han Sans K"); }
</style></defs><path d="M975.232 584.512v-2.496c6.4-34.048 9.792-68.608 10.048-103.296a577.088 577.088 0 0 0-10.048-103.296v-6.336l-3.84-3.776-8.768-8.768-6.272-6.336h-8.768a140.736 140.736 0 0 1-114.368-70.528 136.32 136.32 0 0 1-1.28-134.784 6.272 6.272 0 0 1 2.56-3.84v-2.496a18.944 18.944 0 0 0 2.496-10.048v-2.56c0-3.776-2.56-6.272-2.56-10.048v-2.56a28.992 28.992 0 0 0-6.272-8.768A465.92 465.92 0 0 0 648.448 1.28h-20.096a2.56 2.56 0 0 0-2.56 2.56 2.56 2.56 0 0 0-2.432 2.432L616.96 12.608l-2.496 2.56a2.56 2.56 0 0 1-2.56 2.496 138.176 138.176 0 0 1-232.448 0 2.56 2.56 0 0 0-2.56-2.56l-2.432-2.56-2.56-2.496-2.496-2.496-2.56-2.56A2.56 2.56 0 0 1 364.48 2.56L360.704 0H340.48a484.8 484.8 0 0 0-177.152 103.296l-6.272 8.832v2.56a18.944 18.944 0 0 0-2.56 10.048v2.56a18.944 18.944 0 0 0 2.56 10.048v2.496c0 2.56 0 2.56 2.496 3.776a142.72 142.72 0 0 1-2.56 133.504A144.448 144.448 0 0 1 42.816 347.712H33.92l-3.776 2.56a2.56 2.56 0 0 0-2.496 2.432l-2.56 2.56-2.496 2.56-2.496 2.496-2.56 2.496-2.432 2.56a2.56 2.56 0 0 1-2.56 2.496 2.56 2.56 0 0 1-2.496 2.56v8.768A554.368 554.368 0 0 0 0 481.216c0.256 34.688 3.584 69.248 10.048 103.296v2.56a11.328 11.328 0 0 0 3.776 8.768l6.272 6.336c-3.776 3.776-2.56 6.272 2.56 8.832h4.992l8.768 2.56a134.4 134.4 0 0 1 111.872 70.464 137.6 137.6 0 0 1 3.776 131.008 2.56 2.56 0 0 1-2.56 2.56v2.56a18.944 18.944 0 0 0-2.496 10.048v2.56c0 3.712 2.56 6.208 2.56 10.048v2.496a28.992 28.992 0 0 0 6.272 8.832 502.4 502.4 0 0 0 177.216 103.296h2.496l8.768 2.56c3.2 0.256 6.336-0.64 8.832-2.56h2.496l8.768-3.84 8.832-8.768a138.176 138.176 0 0 1 232.512 0l2.496 2.56 3.776 3.712 2.56 2.56a7.552 7.552 0 0 0 6.208 2.56h2.56l8.768 2.432c3.2 0.32 6.272-0.576 8.768-2.496 66.688-20.928 128-56.192 179.712-103.296l2.56-2.56 6.272-8.768v-2.56a18.944 18.944 0 0 0 2.56-10.048v-2.56a18.944 18.944 0 0 0-2.56-10.048v-2.56a2.56 2.56 0 0 0-2.56-2.496 137.6 137.6 0 0 1 3.84-131.008 143.232 143.232 0 0 1 111.808-70.528c3.2 0.32 6.272-0.64 8.832-2.56h2.496l8.768-3.712 6.272-6.336c6.336-2.56 8.832-3.776 8.832-8.832l-2.56-3.776z m-197.312 60.48a194.432 194.432 0 0 0-15.104 167.552 447.168 447.168 0 0 1-118.144 70.528 200.896 200.896 0 0 0-304.128 0 447.168 447.168 0 0 1-118.08-70.528 201.984 201.984 0 0 0-15.104-167.552 196.032 196.032 0 0 0-139.52-97.024A391.424 391.424 0 0 1 61.568 477.44c0-22.784 2.112-45.568 6.272-68.032a202.304 202.304 0 0 0 139.52-96.96c30.272-51.584 35.84-113.984 15.104-170.112A447.168 447.168 0 0 1 340.48 73.088a198.4 198.4 0 0 0 154.624 71.808c59.52 0 116.096-26.24 154.56-71.808 42.752 17.28 82.56 41.024 118.144 70.528a201.984 201.984 0 0 0 15.168 169.6 201.088 201.088 0 0 0 139.392 97.472c4.16 22.4 6.272 45.184 6.272 68.032 0 23.68-2.048 47.232-6.272 70.528a199.808 199.808 0 0 0-143.296 97.024l-1.28-1.28z" p-id="3245" fill="#e6e6e6"></path><path d="M492.608 303.168a189.44 189.44 0 1 0 0 378.88 189.44 189.44 0 0 0 0-378.88z m0 316.16a126.72 126.72 0 1 1 0-253.44 126.72 126.72 0 0 1 0 253.44z" p-id="3246" fill="#e6e6e6"></path></svg>