<?xml version="1.0" standalone="no"?><!DOCTYPE svg PUBLIC "-//W3C//DTD SVG 1.1//EN" "http://www.w3.org/Graphics/SVG/1.1/DTD/svg11.dtd"><svg t="1562055201109" class="icon" viewBox="0 0 1024 1024" version="1.1" xmlns="http://www.w3.org/2000/svg" p-id="4367" xmlns:xlink="http://www.w3.org/1999/xlink" width="200" height="200"><defs><style type="text/css"></style></defs><path d="M795.7 694.9v264.6H531.1v-61.1c0-56.2-45.6-101.8-101.8-101.8s-101.8 45.6-101.8 101.8v61.1H62.9V694.9H124c56.2 0 101.8-45.6 101.8-101.8 0-56.2-45.6-101.8-101.8-101.8H62.9V226.7h264.6v-61.1c0-56.2 45.6-101.8 101.8-101.8s101.8 45.6 101.8 101.8v61.1h264.6v264.6h61.1c56.2 0 101.8 45.6 101.8 101.8 0 56.2-45.6 101.8-101.8 101.8h-61.1z m0 0" p-id="4368"></path></svg>